# xmcd
#
# Track frame offsets: 
#        150
#        12702
#        22017
#        31750
#        42755
#        53565
#        65180
#        79015
#        92852
#        104455
#        114380
#        126072
#
# Disc length: 1817 seconds
#
# Revision: 2
# Processed by: cddbd v1.5.2PL0 Copyright (c) Steve Scherf et al.
# Submitted via: ExactAudioCopy v0.95b4
#
DISCID=9a07170c
DTITLE=Homer and Jethro - Country Their Way - Disc 2 of 3
DYEAR=2001
DGENRE=Comedy
TTITLE0=(How Much Is) That Hound Dog In The Window (Single A-Side - Ma
TTITLE0=rch 1953)
TTITLE1=Tiger By The Tail (from ''Wanted For Murder'' LSP 3673 - 1966)
TTITLE2=The Chase Is On (from ''The Old Crusty Minstrels'' LSP 3462 - 
TTITLE2=1965)
TTITLE3=Boll Weevil No. 2 (from ''Barefoot Ballads'' LPM 1412 - 1957)
TTITLE4=King Of The Camp (Single A-Side - August 1965)
TTITLE5=The Ballad Of Roger Miller (Single B-Side - August 1967)
TTITLE6=El Paso (from ''Go West'' LSP 2674 - 1963)
TTITLE7=Oh Give Me A Home (from ''Go West'' LSP 2674 - 1963)
TTITLE8=Hernando's Hideaway (Single A-Side - July 1954)
TTITLE9=No Hair Sam (Mohair Sam) (from ''Wanted For Murder'' LSP 3673 
TTITLE9=1966)
TTITLE10=The One On The Right Is On The Left (from ''The Old Crusty Mi
TTITLE10=nstrels'' LSP 3462 - 1965)
TTITLE11=I Taught Her Everything She Knows (from ''There's Nothing Lik
TTITLE11=e An Old Hippie'' LSP 3973 - 1968)
EXTD=Country Their Way - Disc 2 of 3\n© 2001 TimelessMusic.com/BMG Spe
EXTD=cial Products\n\nOriginally Released 2001\n\nAMG EXPERT REVIEW:  
EXTD=N/A
EXTT0=
EXTT1=
EXTT2=
EXTT3=
EXTT4=
EXTT5=
EXTT6=
EXTT7=
EXTT8=
EXTT9=
EXTT10=
EXTT11=
PLAYORDER=
